<svg width="53" height="53" viewBox="0 0 53 53" fill="none" xmlns="http://www.w3.org/2000/svg">
<path fill-rule="evenodd" clip-rule="evenodd" d="M0 26.5C0 19.4718 2.79196 12.7314 7.76167 7.76167C12.7314 2.79196 19.4718 0 26.5 0C33.5282 0 40.2686 2.79196 45.2383 7.76167C50.208 12.7314 53 19.4718 53 26.5C53 33.5282 50.208 40.2686 45.2383 45.2383C40.2686 50.208 33.5282 53 26.5 53C19.4718 53 12.7314 50.208 7.76167 45.2383C2.79196 40.2686 0 33.5282 0 26.5H0ZM24.9877 37.842L40.2447 18.7691L37.4887 16.5643L24.4789 32.8211L15.264 25.1432L13.0027 27.8568L24.9877 37.8455V37.842Z" fill="#F9A825"/>
<circle cx="26.4997" cy="26.4997" r="17.0778" fill="#F9A825"/>
<path d="M35.25 18.0625H35.4375C35.7481 18.0625 36 17.8316 36 17.5469V16.5156C36 16.2309 35.7481 16 35.4375 16H18.5625C18.2519 16 18 16.2309 18 16.5156V17.5469C18 17.8316 18.2519 18.0625 18.5625 18.0625H18.75C18.75 21.5242 20.2588 25.187 23.3053 27C20.2453 28.8211 18.75 32.4957 18.75 35.9375H18.5625C18.2519 35.9375 18 36.1684 18 36.4531V37.4844C18 37.7691 18.2519 38 18.5625 38H35.4375C35.7481 38 36 37.7691 36 37.4844V36.4531C36 36.1684 35.7481 35.9375 35.4375 35.9375H35.25C35.25 32.4758 33.7412 28.813 30.6947 27C33.7548 25.1789 35.25 21.5043 35.25 18.0625ZM21 18.0625H33C33 22.429 30.3137 25.9688 27 25.9688C23.6863 25.9688 21 22.429 21 18.0625ZM33 35.9375H21C21 31.571 23.6863 28.0312 27 28.0312C30.3137 28.0312 33 31.571 33 35.9375Z" fill="white"/>
</svg>
