<svg width="198" height="144" viewBox="0 0 198 144" fill="none" xmlns="http://www.w3.org/2000/svg">
<path opacity="0.12" d="M91.3222 77.6316C89.3073 77.0807 89.2695 74.4922 89.2695 74.4922L91.2015 74.8771C91.0956 75.7958 91.1363 76.7256 91.3222 77.6316Z" fill="black"/>
<path d="M197.458 7.08254V115.874C197.458 117.487 196.817 119.034 195.676 120.175C194.535 121.316 192.988 121.957 191.375 121.957H26.9728C25.3669 121.947 23.8302 121.301 22.6988 120.161C21.5675 119.021 20.9335 117.48 20.9356 115.874V7.08254C20.9335 5.47657 21.5675 3.93512 22.6988 2.79529C23.8302 1.65545 25.3669 1.00997 26.9728 1H191.375C192.174 1 192.965 1.15733 193.703 1.46301C194.441 1.76868 195.111 2.21672 195.676 2.78153C196.241 3.34635 196.689 4.01688 196.995 4.75485C197.3 5.49282 197.458 6.28377 197.458 7.08254Z" fill="#116FDD"/>
<path opacity="0.7" d="M197.458 7.08254V115.874C197.458 117.487 196.817 119.034 195.676 120.175C194.535 121.316 192.988 121.957 191.375 121.957H26.9728C25.3669 121.947 23.8302 121.301 22.6988 120.161C21.5675 119.021 20.9335 117.48 20.9356 115.874V7.08254C20.9335 5.47657 21.5675 3.93512 22.6988 2.79529C23.8302 1.65545 25.3669 1.00997 26.9728 1H191.375C192.174 1 192.965 1.15733 193.703 1.46301C194.441 1.76868 195.111 2.21672 195.676 2.78153C196.241 3.34635 196.689 4.01688 196.995 4.75485C197.3 5.49282 197.458 6.28377 197.458 7.08254Z" fill="white" stroke="white" stroke-miterlimit="10"/>
<path d="M187.224 10.1424C188.128 10.1424 188.861 9.40922 188.861 8.50479C188.861 7.60037 188.128 6.86719 187.224 6.86719C186.319 6.86719 185.586 7.60037 185.586 8.50479C185.586 9.40922 186.319 10.1424 187.224 10.1424Z" fill="#116FDD"/>
<path d="M179.393 8.50479C179.394 8.83049 179.299 9.1493 179.119 9.42083C178.939 9.69236 178.683 9.9044 178.382 10.0301C178.082 10.1558 177.751 10.1894 177.431 10.1268C177.112 10.0642 176.818 9.90808 176.587 9.6783C176.356 9.44853 176.199 9.15541 176.135 8.83607C176.071 8.51674 176.103 8.18557 176.227 7.88452C176.351 7.58347 176.562 7.32609 176.833 7.14498C177.104 6.96387 177.422 6.86719 177.748 6.86719C178.182 6.86915 178.598 7.04208 178.906 7.34855C179.214 7.65502 179.389 8.07039 179.393 8.50479V8.50479Z" fill="#116FDD"/>
<path d="M169.926 8.50479C169.928 8.83049 169.832 9.1493 169.652 9.42083C169.473 9.69236 169.216 9.9044 168.916 10.0301C168.615 10.1558 168.284 10.1894 167.965 10.1268C167.645 10.0642 167.351 9.90808 167.12 9.6783C166.889 9.44853 166.732 9.15541 166.668 8.83607C166.604 8.51674 166.636 8.18557 166.76 7.88452C166.885 7.58347 167.095 7.32609 167.366 7.14498C167.637 6.96387 167.955 6.86719 168.281 6.86719C168.715 6.86915 169.131 7.04208 169.439 7.34855C169.747 7.65502 169.922 8.07039 169.926 8.50479V8.50479Z" fill="#116FDD"/>
<path d="M184.519 29.1568V137.948C184.509 139.553 183.864 141.088 182.726 142.219C181.588 143.351 180.048 143.985 178.444 143.985H14.034C12.4293 143.985 10.8898 143.351 9.75159 142.219C8.61339 141.088 7.96895 139.553 7.95898 137.948V29.1568C7.95898 27.5449 8.59878 25.9989 9.73785 24.8584C10.8769 23.7179 12.4221 23.0762 14.034 23.0742H178.444C180.056 23.0762 181.601 23.7179 182.74 24.8584C183.879 25.9989 184.519 27.5449 184.519 29.1568V29.1568Z" fill="#116FDD"/>
<path opacity="0.8" d="M184.519 29.1568V137.948C184.509 139.553 183.864 141.088 182.726 142.219C181.588 143.351 180.048 143.985 178.444 143.985H14.034C12.4293 143.985 10.8898 143.351 9.75159 142.219C8.61339 141.088 7.96895 139.553 7.95898 137.948V29.1568C7.95898 27.5449 8.59878 25.9989 9.73785 24.8584C10.8769 23.7179 12.4221 23.0762 14.034 23.0742H178.444C180.056 23.0762 181.601 23.7179 182.74 24.8584C183.879 25.9989 184.519 27.5449 184.519 29.1568V29.1568Z" fill="white"/>
<path d="M184.529 35.8398H145.144V135.364H184.529V35.8398Z" fill="#116FDD"/>
<path opacity="0.2" d="M184.529 35.8398H145.144V135.364H184.529V35.8398Z" fill="black"/>
<path d="M184.529 65.7422H145.144V67.01H184.529V65.7422Z" fill="#FAFAFA"/>
<path d="M184.528 96.9688H145.143V98.2366H184.528V96.9688Z" fill="#FAFAFA"/>
<path d="M184.528 127.758H145.143V129.026H184.528V127.758Z" fill="#FAFAFA"/>
<path d="M162.322 74.457V89.3238L173.552 81.8904L162.322 74.457Z" fill="#FAFAFA"/>
<path d="M162.321 105.551V120.425L173.551 112.992L162.321 105.551Z" fill="#FAFAFA"/>
<path d="M162.322 42.7812V57.6556L173.552 50.2146L162.322 42.7812Z" fill="#FAFAFA"/>
<path d="M65.7057 96.9688C65.7057 96.9688 55.6385 111.979 52.4992 114.96C52.4992 114.96 35.625 116.469 28.6822 111.722L26.9238 116.031C26.9238 116.031 42.9528 125.087 53.8123 122.876C64.6718 120.665 72.6787 99.7006 72.6787 99.7006L65.7057 96.9688Z" fill="#B55B52"/>
<path d="M114.629 88.0561C114.629 88.0561 124.251 90.6899 130.25 91.1955C130.25 91.1955 134.778 80.6831 135.533 71.1367L138.944 71.3254C138.944 71.3254 142.083 89.9201 133.85 97.4516C128.16 102.666 109.173 93.0067 109.173 93.0067L114.629 88.0561Z" fill="#B55B52"/>
<path d="M87.5567 47.0405C87.5567 47.0405 74.5162 45.7802 73.1654 59.0697C72.4192 67.3171 73.7528 75.6199 77.0443 83.2187C77.0443 83.2187 84.9305 99.2703 94.492 97.0365C104.054 94.8027 112.159 89.6258 110.468 80.9623C108.778 72.2988 105.631 72.6611 105.744 60.5866C105.857 48.512 94.5297 41.5013 87.5567 47.0405Z" fill="#263238"/>
<path d="M101.788 66.066C100.423 72.7297 97.3813 75.386 91.2233 74.8729C91.1174 75.7916 91.1581 76.7214 91.344 77.6274C91.4974 78.7132 92.0001 79.7195 92.7762 80.4942C93.5523 81.2689 94.5595 81.7699 95.6456 81.9214C100.928 82.8345 98.0378 89.634 98.0378 89.634L92.7552 92.23L85.8048 88.2228L80.5222 82.5855H82.3711C82.3711 82.5855 85.9482 77.1746 82.3711 68.0659C81.589 67.6079 80.9297 66.9669 80.4499 66.1979C79.9701 65.4289 79.6842 64.555 79.6166 63.6511C79.4657 60.6325 82.5824 60.4514 83.7597 61.5834C83.7597 61.5834 89.1253 59.2439 88.3254 50.2031C88.3254 50.2031 93.608 54.1726 100.4 53.018C100.392 53.0708 103.147 59.3949 101.788 66.066Z" fill="#B55B52"/>
<path d="M96.9375 60.5312L97.0054 65.1951C97.3801 65.3395 97.7814 65.4021 98.1823 65.3787C98.5832 65.3553 98.9744 65.2463 99.3298 65.0592L96.9375 60.5312Z" fill="#A02724"/>
<path d="M89.7902 55.2848C89.7455 55.2949 89.6991 55.2949 89.6544 55.2848C89.6255 55.267 89.6005 55.2438 89.5807 55.2163C89.5609 55.1888 89.5467 55.1577 89.539 55.1247C89.5313 55.0918 89.5301 55.0576 89.5357 55.0242C89.5413 54.9908 89.5534 54.9588 89.5713 54.9301C89.9224 54.3945 90.4472 53.9963 91.0575 53.8025C91.6678 53.6087 92.3263 53.6311 92.922 53.866C92.9542 53.8762 92.9841 53.8928 93.0096 53.9149C93.0352 53.9369 93.0561 53.9639 93.0709 53.9943C93.0857 54.0246 93.0942 54.0577 93.0959 54.0914C93.0975 54.1252 93.0923 54.1589 93.0805 54.1906C93.0582 54.2544 93.0116 54.3069 92.9508 54.3365C92.8901 54.3662 92.8201 54.3707 92.756 54.349C92.2711 54.1502 91.7322 54.1257 91.2312 54.2799C90.7303 54.434 90.2983 54.7572 90.009 55.1942C89.9825 55.2258 89.9488 55.2505 89.9107 55.2663C89.8726 55.282 89.8313 55.2884 89.7902 55.2848Z" fill="#263238"/>
<path d="M101.466 56.7285C101.4 56.7288 101.335 56.7046 101.285 56.6605C100.531 55.9738 99.2175 56.4794 99.2024 56.487C99.1382 56.5093 99.068 56.5061 99.0061 56.478C98.9443 56.4499 98.8957 56.3991 98.8703 56.336C98.8583 56.3043 98.8526 56.2706 98.8536 56.2367C98.8547 56.2028 98.8625 56.1694 98.8765 56.1385C98.8905 56.1076 98.9106 56.0798 98.9354 56.0568C98.9603 56.0337 98.9894 56.0157 99.0213 56.004C99.0816 56.004 100.674 55.3776 101.64 56.2832C101.688 56.3313 101.715 56.3964 101.715 56.4643C101.715 56.5322 101.688 56.5974 101.64 56.6454C101.594 56.6934 101.532 56.7229 101.466 56.7285V56.7285Z" fill="#263238"/>
<path d="M94.9507 67.4211C94.072 67.4578 93.1992 67.2623 92.4201 66.8542C91.6411 66.4461 90.9834 65.84 90.5133 65.0967C90.5001 65.0533 90.5025 65.0066 90.5199 64.9647C90.5373 64.9228 90.5687 64.8882 90.6088 64.8668C90.6488 64.8455 90.695 64.8387 90.7395 64.8476C90.7841 64.8564 90.8241 64.8805 90.8529 64.9156C91.2918 65.5974 91.9019 66.152 92.6224 66.5241C93.3428 66.8963 94.1482 67.0728 94.9582 67.0362C95.0083 67.0362 95.0562 67.0561 95.0916 67.0915C95.127 67.1268 95.1469 67.1748 95.1469 67.2249C95.1469 67.2769 95.1262 67.3268 95.0894 67.3636C95.0526 67.4004 95.0027 67.4211 94.9507 67.4211V67.4211Z" fill="#263238"/>
<path d="M93.6009 59.7273C93.6009 60.2857 93.3217 60.7385 92.9443 60.7536C92.567 60.7687 92.25 60.3234 92.2349 59.765C92.2199 59.2065 92.5066 58.7537 92.884 58.7387C93.2613 58.7236 93.5858 59.1688 93.6009 59.7273Z" fill="#263238"/>
<path d="M100.306 59.7898C100.306 60.3407 100.027 60.801 99.6498 60.8161C99.2724 60.8312 98.9555 60.3859 98.9328 59.8275C98.9102 59.269 99.2121 58.8162 99.5894 58.8012C99.9667 58.7861 100.291 59.2313 100.306 59.7898Z" fill="#263238"/>
<path d="M92.7715 58.7561L94.4846 58.2656C94.4846 58.2656 94.1752 59.1863 92.7715 58.7561Z" fill="#263238"/>
<path d="M99.5898 58.7944L100.85 58.6133C100.798 58.729 100.717 58.8296 100.616 58.9059C100.514 58.9822 100.395 59.0316 100.27 59.0497C100.144 59.0677 100.016 59.0538 99.897 59.0092C99.7782 58.9646 99.6725 58.8907 99.5898 58.7944V58.7944Z" fill="#263238"/>
<path d="M117.892 87.7471L111.983 100.757L108.844 99.6178C108.844 99.6178 109.161 123.239 106.58 135.373H75.8651L74.0992 103.135L72.4917 106.5L61.1719 100.146C61.1719 100.146 64.3037 87.3169 69.1939 85.0529C71.5258 83.9738 76.499 83.1437 81.6155 82.6078C86.2774 82.0798 90.9688 81.8579 95.6597 81.9437C95.6597 81.9437 96.1427 81.9437 96.9955 81.9437C104.319 82.2177 111.476 84.2054 117.892 87.7471V87.7471Z" fill="#116FDD"/>
<path d="M135.536 71.1375C134.371 69.4811 133.597 67.582 133.272 65.5832C132.954 63.4317 133.153 61.2352 133.854 59.1762L139.951 58.9648L140.706 64.3003C141.004 66.7767 140.384 69.2766 138.963 71.3262L135.536 71.1375Z" fill="#B55B52"/>
<path d="M28.6824 111.726L25.5053 106.058L21.6415 104.715L18.8945 109.847L21.3472 113.212C21.3472 113.212 24.5846 115.959 26.9241 116.035L28.6824 111.726Z" fill="#B55B52"/>
<path d="M96.9571 81.9432C96.9042 90.0784 91.8178 98.9909 91.8178 98.9909C87.2899 94.6215 82.762 85.2486 81.5771 82.5922C86.239 82.0641 90.9304 81.8423 95.6213 81.9281C95.6213 81.9281 96.1345 81.913 96.9571 81.9432Z" fill="#B55B52"/>
<path opacity="0.12" d="M72.4805 106.489L74.0652 97.7578L74.0954 103.131L72.4805 106.489Z" fill="black"/>
<path opacity="0.12" d="M112.003 100.75L106.932 96.9688L108.864 99.6101L112.003 100.75Z" fill="black"/>
<path d="M82.4249 80.8281H79.8213V96.1628H82.4249V80.8281Z" fill="#FAFAFA"/>
<path d="M76.3223 80.8281H73.7188V96.1628H76.3223V80.8281Z" fill="#FAFAFA"/>
<path d="M89.6917 92.0208C91.2763 85.338 87.1434 78.636 80.4606 77.0514C73.7778 75.4669 67.0758 79.5998 65.4912 86.2826C63.9066 92.9653 68.0395 99.6674 74.7223 101.252C81.4051 102.837 88.1071 98.7036 89.6917 92.0208Z" stroke="#FAFAFA" stroke-width="0.996895" stroke-miterlimit="10"/>
<path d="M184.516 29.1568V35.843H7.92578V29.1568C7.92578 27.5449 8.56558 25.9989 9.70464 24.8584C10.8437 23.7179 12.3889 23.0762 14.0008 23.0742H178.441C180.053 23.0762 181.598 23.7179 182.737 24.8584C183.876 25.9989 184.516 27.5449 184.516 29.1568V29.1568Z" fill="#116FDD"/>
<path d="M184.519 135.383V137.964C184.509 139.568 183.864 141.104 182.726 142.235C181.588 143.366 180.048 144.001 178.444 144.001H14.034C12.4293 144.001 10.8898 143.366 9.75159 142.235C8.61339 141.104 7.96895 139.568 7.95898 137.964V135.383H184.519Z" fill="#116FDD"/>
<path d="M42.8245 32.7756H17.0302C16.289 32.7756 15.578 32.4817 15.0532 31.9582C14.5283 31.4348 14.2325 30.7246 14.2305 29.9834C14.2305 29.2408 14.5254 28.5287 15.0505 28.0036C15.5756 27.4786 16.2877 27.1836 17.0302 27.1836H42.8245C43.1921 27.1836 43.5562 27.256 43.8959 27.3967C44.2356 27.5374 44.5442 27.7436 44.8042 28.0036C45.0642 28.2636 45.2704 28.5723 45.4111 28.9119C45.5518 29.2516 45.6242 29.6157 45.6242 29.9834C45.6223 30.7246 45.3264 31.4348 44.8015 31.9582C44.2767 32.4817 43.5657 32.7756 42.8245 32.7756Z" stroke="white" stroke-width="0.5" stroke-miterlimit="10"/>
<path d="M56.8311 32.7756H53.0579C52.3173 32.7756 51.6071 32.4814 51.0835 31.9578C50.5598 31.4341 50.2656 30.7239 50.2656 29.9834V29.9834C50.2656 29.2421 50.5596 28.5311 51.083 28.0063C51.6064 27.4815 52.3166 27.1856 53.0579 27.1836H56.8311C57.5737 27.1836 58.2858 27.4786 58.8109 28.0036C59.3359 28.5287 59.6309 29.2408 59.6309 29.9834V29.9834C59.6289 30.7246 59.3331 31.4348 58.8082 31.9582C58.2834 32.4817 57.5724 32.7756 56.8311 32.7756Z" stroke="white" stroke-width="0.5" stroke-miterlimit="10"/>
<path d="M130.086 39.2773H23.4223C17.1539 39.2773 12.0723 44.3589 12.0723 50.6274V121.143C12.0723 127.411 17.1539 132.493 23.4223 132.493H130.086C136.354 132.493 141.436 127.411 141.436 121.143V50.6274C141.436 44.3589 136.354 39.2773 130.086 39.2773Z" stroke="white" stroke-width="0.5" stroke-miterlimit="10"/>
<path d="M51.8148 47.3203H6.22593C2.78744 47.3203 0 50.1078 0 53.5462V69.7865C0 73.2249 2.78744 76.0124 6.22593 76.0124H51.8148C55.2533 76.0124 58.0407 73.2249 58.0407 69.7865V53.5462C58.0407 50.1078 55.2533 47.3203 51.8148 47.3203Z" fill="#116FDD"/>
<path d="M60.2623 52.2194V71.0858C60.2673 71.7299 60.145 72.3686 59.9024 72.9653C59.6598 73.562 59.3017 74.1049 58.8487 74.5628C58.3957 75.0207 57.8568 75.3846 57.2627 75.6336C56.6687 75.8826 56.0313 76.0118 55.3872 76.0137H37.9018C32.6192 77.84 35.9246 85.1526 36.0378 85.4168C35.0319 85.0724 34.0907 84.5622 33.2531 83.9074C29.4798 80.8888 30.0081 76.0213 30.0081 76.0213H7.08913C5.79017 76.0213 4.54442 75.5053 3.62591 74.5868C2.70741 73.6683 2.19141 72.4225 2.19141 71.1235V52.2571C2.19141 50.9581 2.70741 49.7124 3.62591 48.7939C4.54442 47.8754 5.79017 47.3594 7.08913 47.3594H55.3872C56.6763 47.3633 57.9118 47.8762 58.8247 48.7863C59.7377 49.6964 60.2544 50.9303 60.2623 52.2194V52.2194Z" fill="#116FDD"/>
<path opacity="0.2" d="M58.0332 52.227V71.0934C58.0382 71.7407 57.9146 72.3825 57.6697 72.9816C57.4248 73.5808 57.0633 74.1254 56.6063 74.5838C56.1493 75.0422 55.6059 75.4053 55.0075 75.652C54.4091 75.8988 53.7676 76.0243 53.1204 76.0213H35.6727C31.8088 77.3495 32.5333 81.6058 33.2502 83.9075C29.4769 80.8889 30.0052 76.0213 30.0052 76.0213H4.89018C4.24736 76.0213 3.61085 75.8946 3.01705 75.6483C2.42326 75.4021 1.88383 75.0412 1.42964 74.5863C0.975442 74.1315 0.615391 73.5915 0.37008 72.9973C0.12477 72.4031 -0.000986188 71.7664 5.82353e-06 71.1236V52.2572C-0.000986188 51.6143 0.12477 50.9776 0.37008 50.3834C0.615391 49.7893 0.975442 49.2493 1.42964 48.7944C1.88383 48.3395 2.42326 47.9786 3.01705 47.7324C3.61085 47.4862 4.24736 47.3594 4.89018 47.3594H53.1204C53.7626 47.3564 54.399 47.48 54.9935 47.723C55.5879 47.966 56.1287 48.3237 56.5849 48.7757C57.0411 49.2277 57.4038 49.7651 57.6523 50.3573C57.9008 50.9495 58.0302 51.5848 58.0332 52.227V52.227Z" fill="white"/>
<path d="M53.5169 51.8867H4.22266V54.4978H53.5169V51.8867Z" fill="#116FDD"/>
<path d="M53.5169 56.6875H4.22266V59.2986H53.5169V56.6875Z" fill="#116FDD"/>
<path d="M53.5169 61.4805H4.22266V64.0916H53.5169V61.4805Z" fill="#116FDD"/>
<path opacity="0.1" d="M53.5169 51.8867H4.22266V54.4978H53.5169V51.8867Z" fill="black"/>
<path opacity="0.1" d="M53.5169 56.6875H4.22266V59.2986H53.5169V56.6875Z" fill="black"/>
<path opacity="0.1" d="M53.5169 61.4805H4.22266V64.0916H53.5169V61.4805Z" fill="black"/>
</svg>
