<svg width="102" height="82" viewBox="0 0 102 82" fill="none" xmlns="http://www.w3.org/2000/svg">
<path d="M53.4355 81.0053C79.8696 81.0053 101.299 79.2491 101.299 77.0827C101.299 74.9164 79.8696 73.1602 53.4355 73.1602C27.0014 73.1602 5.57227 74.9164 5.57227 77.0827C5.57227 79.2491 27.0014 81.0053 53.4355 81.0053Z" fill="#F5F5F5"/>
<path d="M65.2069 61.5938H61.0103C58.8256 61.5938 57.0605 64.7609 57.0605 68.6687C57.0605 72.5764 58.8305 75.7412 61.0103 75.7412H65.2069C67.3915 75.7412 69.1566 72.574 69.1566 68.6687C69.1566 64.7634 67.3915 61.5938 65.2069 61.5938Z" fill="#212D33"/>
<path opacity="0.05" d="M70.1444 61.5938H65.9478C63.7631 61.5938 61.998 64.7609 61.998 68.6687C61.998 72.5764 63.768 75.7412 65.9478 75.7412H70.1444C72.329 75.7412 74.0941 72.574 74.0941 68.6687C74.0941 64.7634 72.329 61.5938 70.1444 61.5938Z" fill="white"/>
<path d="M99.2019 63.109L25.7148 63.0572V16.1172H99.2019V63.109Z" fill="#263F97"/>
<path opacity="0.3" d="M99.2025 16.1172H49.3965V63.1065H99.2025V16.1172Z" fill="#212D33"/>
<path opacity="0.2" d="M49.3959 16.1172H25.7148V64.0347H49.3959V16.1172Z" fill="white"/>
<path opacity="0.1" d="M25.8926 18.3008H99.2019" stroke="white" stroke-width="2" stroke-linecap="round" stroke-linejoin="round"/>
<path opacity="0.1" d="M25.8926 20.3281H99.2019" stroke="white" stroke-width="2" stroke-linecap="round" stroke-linejoin="round"/>
<path opacity="0.1" d="M25.8926 22.3594H99.2019" stroke="white" stroke-width="2" stroke-linecap="round" stroke-linejoin="round"/>
<path opacity="0.1" d="M25.8926 24.3906H99.2019" stroke="white" stroke-width="2" stroke-linecap="round" stroke-linejoin="round"/>
<path opacity="0.1" d="M25.8926 26.4219H99.2019" stroke="white" stroke-width="2" stroke-linecap="round" stroke-linejoin="round"/>
<path opacity="0.1" d="M25.8926 28.4492H99.2019" stroke="white" stroke-width="2" stroke-linecap="round" stroke-linejoin="round"/>
<path opacity="0.1" d="M25.8926 30.4805H99.2019" stroke="white" stroke-width="2" stroke-linecap="round" stroke-linejoin="round"/>
<path opacity="0.1" d="M25.8926 32.5078H99.2019" stroke="white" stroke-width="2" stroke-linecap="round" stroke-linejoin="round"/>
<path opacity="0.1" d="M25.8926 34.543H99.2019" stroke="white" stroke-width="2" stroke-linecap="round" stroke-linejoin="round"/>
<path opacity="0.1" d="M25.8926 36.5703H99.2019" stroke="white" stroke-width="2" stroke-linecap="round" stroke-linejoin="round"/>
<path opacity="0.1" d="M25.8926 38.5977H99.2019" stroke="white" stroke-width="2" stroke-linecap="round" stroke-linejoin="round"/>
<path opacity="0.1" d="M25.8926 40.6289H99.2019" stroke="white" stroke-width="2" stroke-linecap="round" stroke-linejoin="round"/>
<path opacity="0.1" d="M25.8926 42.6602H99.2019" stroke="white" stroke-width="2" stroke-linecap="round" stroke-linejoin="round"/>
<path opacity="0.1" d="M25.8926 44.6875H99.2019" stroke="white" stroke-width="2" stroke-linecap="round" stroke-linejoin="round"/>
<path opacity="0.1" d="M25.8926 46.7148H99.2019" stroke="white" stroke-width="2" stroke-linecap="round" stroke-linejoin="round"/>
<path opacity="0.1" d="M25.8926 48.7461H99.2019" stroke="white" stroke-width="2" stroke-linecap="round" stroke-linejoin="round"/>
<path opacity="0.1" d="M25.8926 50.7773H99.2019" stroke="white" stroke-width="2" stroke-linecap="round" stroke-linejoin="round"/>
<path opacity="0.1" d="M25.8926 52.8086H99.2019" stroke="white" stroke-width="2" stroke-linecap="round" stroke-linejoin="round"/>
<path opacity="0.1" d="M25.8926 54.8359H99.2019" stroke="white" stroke-width="2" stroke-linecap="round" stroke-linejoin="round"/>
<path opacity="0.1" d="M25.8926 56.8672H99.2019" stroke="white" stroke-width="2" stroke-linecap="round" stroke-linejoin="round"/>
<path opacity="0.1" d="M25.8926 58.8984H99.2019" stroke="white" stroke-width="2" stroke-linecap="round" stroke-linejoin="round"/>
<path opacity="0.1" d="M25.8926 60.9297H99.2019" stroke="white" stroke-width="2" stroke-linecap="round" stroke-linejoin="round"/>
<path d="M12.23 62.5156H8.34696C6.32273 62.5156 4.68359 65.4483 4.68359 69.0672C4.68359 72.6862 6.32273 75.6164 8.34696 75.6164H12.23C14.2543 75.6164 15.8934 72.6837 15.8934 69.0672C15.8934 65.4508 14.2543 62.5156 12.23 62.5156Z" fill="#212D33"/>
<path opacity="0.05" d="M17.17 62.5156H13.2845C11.2602 62.5156 9.62109 65.4483 9.62109 69.0672C9.62109 72.6862 11.2602 75.6164 13.2845 75.6164H17.17C19.1918 75.6164 20.8334 72.6837 20.8334 69.0672C20.8334 65.4508 19.1918 62.5156 17.17 62.5156Z" fill="white"/>
<path d="M10.0688 49.7206H8.23219C7.87178 49.7329 7.57555 49.3478 7.56815 48.8591C7.56322 48.8082 7.56322 48.7569 7.56815 48.706L8.06186 43.1591C8.12358 42.5889 8.47658 42.1717 8.90118 42.1445H10.7551C11.113 42.1445 11.4093 42.5222 11.4167 43.011C11.4167 43.0604 11.4167 43.1097 11.4167 43.1591L10.9229 48.706C10.8489 49.2688 10.4835 49.7058 10.0688 49.7206Z" fill="#212D33"/>
<path d="M11.9057 31.4005L8.36328 50.5048L46.9299 65.6125L46.6608 27.9618L38.1788 27.7149H14.9445C13.5473 27.7026 12.3155 29.2035 11.9057 31.4005Z" fill="#263F97"/>
<path d="M40.5998 34.4752C39.1606 34.411 37.8695 35.591 37.4474 37.351L34.5295 49.5754H28.9135L28.6074 65.7027H47.0798" fill="#263F97"/>
<path d="M12.4595 48.5455C11.8942 48.5455 11.4375 47.8197 11.4375 46.9261C11.4372 46.7703 11.4521 46.6149 11.4819 46.462L13.6024 35.2448C13.7802 34.3141 14.3233 33.6772 14.9379 33.6797H35.2247C35.4444 33.6797 35.6246 33.9611 35.6246 34.3116C35.6251 34.3738 35.6193 34.4358 35.6073 34.4968C35.163 36.8074 33.7189 44.4624 33.1659 47.3902C33.0376 48.0764 32.6376 48.5455 32.1785 48.5455H12.4595Z" fill="#212D33"/>
<path d="M31.1252 53.516C31.1248 53.7126 31.1108 53.9089 31.0832 54.1035L30.9771 54.8268L30.9154 55.2539L30.4611 58.3742L29.7206 63.4471L29.5157 64.8567H0.808594V63.4471L0.828342 58.3742L0.855496 55.3403V54.106C0.608639 52.4768 1.39611 50.8969 2.59584 50.5685C2.7366 50.5301 2.88194 50.511 3.02784 50.5118H28.9133C30.1353 50.5019 31.1252 51.8547 31.1252 53.516Z" fill="#263F97"/>
<path d="M45.7177 35.2V47.2245C45.7177 47.9527 45.3449 48.5452 44.8833 48.5476H37.8676C37.406 48.5476 37.0332 47.9552 37.0332 47.2245C37.0331 47.1053 37.043 46.9864 37.0628 46.869L39.2253 34.5755C39.329 33.9855 39.6746 33.588 40.0597 33.6103L44.9129 33.8769C45.3622 33.904 45.7177 34.4891 45.7177 35.2Z" fill="#212D33"/>
<path opacity="0.1" d="M24.2933 33.6797H20.4176L15.9668 48.5455H19.8449L24.2933 33.6797Z" fill="white"/>
<path opacity="0.1" d="M27.3096 33.6797H25.4581L21.0098 48.5455H22.8587L27.3096 33.6797Z" fill="white"/>
<path d="M38.5639 58.3789V63.4518H0.814453L0.834201 58.3789H38.5639Z" fill="black"/>
<path d="M33.3053 58.3789H29.8147L23.5371 62.067V63.4518H38.5633V58.3789H33.3053Z" fill="white"/>
<path d="M7.32162 62.067V63.4518H0.814453L0.834201 58.3789H1.0465L7.32162 62.067Z" fill="white"/>
<path opacity="0.3" d="M46.9476 65.6994L46.6613 27.9598L41.4773 27.7129C40.1837 27.6487 38.6902 29.1521 38.3125 30.8949L34.5554 50.5028H33.0915C31.4474 50.5028 30.3218 51.7001 30.3242 52.9714L30.3464 65.7043H46.9476" fill="#212D33"/>
<path d="M31.0308 55.0062C31.0303 55.053 31.0199 55.0992 31.0004 55.1417C30.9808 55.1842 30.9525 55.2222 30.9173 55.253C30.8569 55.3091 30.7775 55.34 30.6951 55.3394H0.857422V54.668H30.7025C30.7593 54.6681 30.8152 54.6827 30.8648 54.7103C30.9145 54.738 30.9563 54.7778 30.9864 54.826C31.0176 54.8808 31.033 54.9431 31.0308 55.0062Z" fill="white"/>
<path d="M6.12054 54.6719V55.3433H0.847656L0.850125 54.6719H6.12054Z" fill="#212D33"/>
<path d="M31.0306 55.0062C31.0301 55.053 31.0197 55.0992 31.0002 55.1417C30.9806 55.1842 30.9523 55.2222 30.9171 55.253C30.8567 55.3091 30.7773 55.34 30.6949 55.3394H23.457V54.668H30.6949C30.7517 54.6681 30.8076 54.6827 30.8572 54.7103C30.9069 54.738 30.9487 54.7778 30.9788 54.826C31.0126 54.88 31.0305 54.9424 31.0306 55.0062Z" fill="#212D33"/>
<path d="M100.52 64.328V64.4613C100.52 64.7887 100.39 65.1026 100.159 65.3341C99.9275 65.5656 99.6135 65.6956 99.2862 65.6956H1.23429C0.906935 65.6956 0.592989 65.5656 0.361515 65.3341C0.130041 65.1026 0 64.7887 0 64.4613V64.328C0 64.0007 0.130041 63.6867 0.361515 63.4553C0.592989 63.2238 0.906935 63.0938 1.23429 63.0938H99.2862C99.6135 63.0938 99.9275 63.2238 100.159 63.4553C100.39 63.6867 100.52 64.0007 100.52 64.328Z" fill="#212D33"/>
<path d="M22.9773 64.1094H8.36328V64.8228H22.9773V64.1094Z" fill="black"/>
<path d="M4.47479 64.462C4.47479 64.5425 4.45096 64.6211 4.40631 64.688C4.36166 64.755 4.29819 64.8072 4.22391 64.8381C4.14963 64.869 4.06786 64.8772 3.98891 64.8617C3.90997 64.8462 3.83739 64.8076 3.78033 64.7509C3.72327 64.6942 3.68428 64.6218 3.66829 64.543C3.65229 64.4641 3.66001 64.3823 3.69046 64.3078C3.72091 64.2334 3.77273 64.1696 3.83939 64.1245C3.90604 64.0795 3.98455 64.0552 4.065 64.0547C4.1187 64.0544 4.17193 64.0647 4.22163 64.085C4.27134 64.1053 4.31653 64.1353 4.35462 64.1731C4.3927 64.211 4.42292 64.256 4.44355 64.3056C4.46417 64.3551 4.47479 64.4083 4.47479 64.462Z" fill="white"/>
<path d="M26.4689 64.462C26.4689 64.5426 26.445 64.6213 26.4003 64.6883C26.3555 64.7553 26.2919 64.8075 26.2175 64.8383C26.1431 64.8691 26.0612 64.8772 25.9822 64.8615C25.9031 64.8458 25.8306 64.807 25.7736 64.75C25.7166 64.6931 25.6778 64.6205 25.6621 64.5415C25.6464 64.4625 25.6545 64.3806 25.6853 64.3061C25.7161 64.2317 25.7683 64.1681 25.8353 64.1233C25.9023 64.0786 25.9811 64.0547 26.0616 64.0547C26.1151 64.0547 26.1681 64.0652 26.2175 64.0857C26.2669 64.1062 26.3118 64.1362 26.3496 64.174C26.3875 64.2118 26.4175 64.2567 26.4379 64.3061C26.4584 64.3556 26.4689 64.4085 26.4689 64.462Z" fill="white"/>
<path d="M38.2769 68.5065C38.2769 64.579 40.0567 61.3945 42.2538 61.3945H38.035C35.8404 61.3945 34.0605 64.579 34.0605 68.5065C34.0605 72.434 35.8404 75.616 38.035 75.616H42.2538C40.0567 75.6234 38.2769 72.4414 38.2769 68.5065Z" fill="black"/>
<path opacity="0.7" d="M38.2769 68.5065C38.2769 64.579 40.0567 61.3945 42.2538 61.3945H38.035C35.8404 61.3945 34.0605 64.579 34.0605 68.5065C34.0605 72.434 35.8404 75.616 38.035 75.616H42.2538C40.0567 75.6234 38.2769 72.4414 38.2769 68.5065Z" fill="#212D33"/>
<path d="M42.2542 75.6263C44.4506 75.6263 46.2311 72.4421 46.2311 68.5143C46.2311 64.5865 44.4506 61.4023 42.2542 61.4023C40.0579 61.4023 38.2773 64.5865 38.2773 68.5143C38.2773 72.4421 40.0579 75.6263 42.2542 75.6263Z" fill="#212D33"/>
<path d="M42.573 74.0615C44.13 74.0615 45.3921 71.5792 45.3921 68.5171C45.3921 65.455 44.13 62.9727 42.573 62.9727C41.0161 62.9727 39.7539 65.455 39.7539 68.5171C39.7539 71.5792 41.0161 74.0615 42.573 74.0615Z" fill="white"/>
<path d="M42.3173 73.3127C43.8074 73.3127 45.0155 71.1641 45.0155 68.5138C45.0155 65.8634 43.8074 63.7148 42.3173 63.7148C40.8271 63.7148 39.6191 65.8634 39.6191 68.5138C39.6191 71.1641 40.8271 73.3127 42.3173 73.3127Z" fill="#212D33"/>
<path d="M41.7238 72.0175C42.8118 72.0175 43.6938 70.4492 43.6938 68.5146C43.6938 66.58 42.8118 65.0117 41.7238 65.0117C40.6359 65.0117 39.7539 66.58 39.7539 68.5146C39.7539 70.4492 40.6359 72.0175 41.7238 72.0175Z" fill="black"/>
<path opacity="0.5" d="M100.521 64.328V64.4613C100.521 64.7887 100.391 65.1026 100.159 65.3341C99.9277 65.5656 99.6138 65.6956 99.2864 65.6956H49.3965V63.0938H99.2864C99.6138 63.0938 99.9277 63.2238 100.159 63.4553C100.391 63.6867 100.521 64.0007 100.521 64.328Z" fill="black"/>
<path d="M85.0157 68.5065C85.0157 64.579 86.7955 61.3945 88.9901 61.3945H84.7738C82.5767 61.3945 80.7969 64.579 80.7969 68.5065C80.7969 72.434 82.5767 75.616 84.7738 75.616H88.9851C86.7955 75.6234 85.0157 72.4414 85.0157 68.5065Z" fill="black"/>
<path opacity="0.7" d="M85.0157 68.5065C85.0157 64.579 86.7955 61.3945 88.9901 61.3945H84.7738C82.5767 61.3945 80.7969 64.579 80.7969 68.5065C80.7969 72.434 82.5767 75.616 84.7738 75.616H88.9851C86.7955 75.6234 85.0157 72.4414 85.0157 68.5065Z" fill="#212D33"/>
<path d="M88.9905 75.6263C91.1869 75.6263 92.9674 72.4421 92.9674 68.5143C92.9674 64.5865 91.1869 61.4023 88.9905 61.4023C86.7942 61.4023 85.0137 64.5865 85.0137 68.5143C85.0137 72.4421 86.7942 75.6263 88.9905 75.6263Z" fill="#212D33"/>
<path d="M89.3113 74.0615C90.8683 74.0615 92.1304 71.5792 92.1304 68.5171C92.1304 65.455 90.8683 62.9727 89.3113 62.9727C87.7544 62.9727 86.4922 65.455 86.4922 68.5171C86.4922 71.5792 87.7544 74.0615 89.3113 74.0615Z" fill="white"/>
<path d="M89.0517 73.3127C90.5418 73.3127 91.7498 71.1641 91.7498 68.5138C91.7498 65.8634 90.5418 63.7148 89.0517 63.7148C87.5615 63.7148 86.3535 65.8634 86.3535 68.5138C86.3535 71.1641 87.5615 73.3127 89.0517 73.3127Z" fill="#212D33"/>
<path d="M88.4602 72.0175C89.5481 72.0175 90.4301 70.4492 90.4301 68.5146C90.4301 66.58 89.5481 65.0117 88.4602 65.0117C87.3722 65.0117 86.4902 66.58 86.4902 68.5146C86.4902 70.4492 87.3722 72.0175 88.4602 72.0175Z" fill="black"/>
<path d="M72.9042 33.7151C72.8548 34.6655 72.7684 35.5838 72.6277 36.5194C72.5061 37.4858 72.2945 38.4387 71.9957 39.3657C71.9015 39.6357 71.7833 39.8967 71.6427 40.1458C71.5448 40.3137 71.4253 40.4681 71.2872 40.6049L71.2181 40.6691L71.1786 40.6987L71.1589 40.716L71.075 40.7728L70.9096 40.8888C70.4903 41.1578 70.0494 41.3915 69.5913 41.5874C68.7221 41.9695 67.8187 42.2687 66.8932 42.481L66.5723 41.6022C67.3573 41.1678 68.162 40.7234 68.8952 40.2618C69.2536 40.0419 69.5982 39.8004 69.9271 39.5385L70.0357 39.4472L70.09 39.4003C70.09 39.4003 70.1122 39.3632 70.1394 39.304C70.2115 39.1443 70.2709 38.9792 70.3171 38.8103C70.4287 38.4042 70.5169 37.9921 70.5812 37.576C70.6578 37.1464 70.7195 36.7095 70.7713 36.2652C70.8725 35.3839 70.9589 34.4804 71.0182 33.6016L72.9042 33.7151Z" fill="#CE7A63"/>
<path d="M67.1583 41.6136L65.6426 41.1445L65.9265 42.9787C65.9265 42.9787 66.9139 42.8553 67.4076 42.3023L67.1583 41.6136Z" fill="#CE7A63"/>
<path d="M63.8037 42.3245L63.8876 42.5714C63.935 42.7077 64.0254 42.825 64.1451 42.9055C64.2649 42.9861 64.4075 43.0256 64.5517 43.0182L65.3243 42.9836L65.038 41.1445L64.1888 41.4778C64.0277 41.5419 63.8976 41.6658 63.8259 41.8237C63.7541 41.9815 63.7461 42.161 63.8037 42.3245Z" fill="#CE7A63"/>
<path d="M74.697 31.9366C74.697 32.5093 74.4205 33.6399 74.1836 34.4891C74.0083 35.0988 73.8626 35.5629 73.8626 35.5629L73.5146 35.4765L70.6461 34.7508C70.6016 33.2696 70.6584 31.6576 72.1272 30.69C73.0455 30.0827 74.6896 30.9171 74.697 31.9366Z" fill="#212D33"/>
<path opacity="0.3" d="M74.6945 32.0324C74.5069 31.8349 74.0823 31.8004 73.1566 32.0941C71.8309 32.5138 71.4606 33.9653 71.4434 34.9503L73.5145 35.4736L73.6922 35.5205L73.8626 35.56C73.8626 35.56 73.9342 35.328 74.0378 34.975C74.0798 34.8318 74.1316 34.6639 74.181 34.4812C74.4281 33.6827 74.6 32.8629 74.6945 32.0324Z" fill="black"/>
<path d="M68.8088 78.0172L67.0586 77.405L68.1596 73.6133L69.9073 74.228L68.8088 78.0172Z" fill="#CE7A63"/>
<path d="M92.1952 73.5252L90.7709 74.5867L87.8555 71.6318L89.2798 70.5703L92.1952 73.5252Z" fill="#CE7A63"/>
<path d="M90.1859 74.154L91.7239 72.8827C91.7499 72.8601 91.7832 72.8477 91.8177 72.8477C91.8521 72.8477 91.8854 72.8601 91.9115 72.8827L93.0914 73.954C93.1179 73.9804 93.139 74.0118 93.1533 74.0463C93.1677 74.0808 93.175 74.1178 93.175 74.1552C93.175 74.1926 93.1677 74.2296 93.1533 74.2641C93.139 74.2987 93.1179 74.33 93.0914 74.3564L93.0668 74.3786C92.5237 74.8131 92.2373 74.9958 91.5609 75.5537C91.1462 75.8968 90.2748 76.7188 89.6996 77.1928C89.1244 77.6668 88.6258 77.1262 88.8233 76.8768C89.7046 75.761 89.9095 75.0254 90.0131 74.4231C90.038 74.3161 90.099 74.2211 90.1859 74.154Z" fill="#212D33"/>
<path d="M66.9397 76.8592L68.8849 77.6714C68.9196 77.6865 68.9485 77.7125 68.9672 77.7454C68.9859 77.7784 68.9934 77.8165 68.9886 77.854L68.7689 79.5697C68.7603 79.6384 68.7248 79.7009 68.6702 79.7434C68.6156 79.786 68.5463 79.8052 68.4776 79.7968C68.4521 79.7941 68.4271 79.7875 68.4036 79.7771C67.7148 79.4981 67.3914 79.3599 66.5373 79.0019L63.9157 77.9034C63.2047 77.6047 63.3578 76.8246 63.6688 76.8814C65.108 77.1431 66.0362 77.0567 66.604 76.8419C66.6583 76.8225 66.7159 76.814 66.7736 76.817C66.8312 76.8199 66.8877 76.8343 66.9397 76.8592Z" fill="#212D33"/>
<path opacity="0.2" d="M68.1591 73.6172L67.5938 75.5698L69.2971 76.34L69.9093 74.2294L68.1591 73.6172Z" fill="black"/>
<path opacity="0.2" d="M89.2823 70.5703L87.8555 71.6318L89.3588 73.1549L90.7832 72.0934L89.2823 70.5703Z" fill="black"/>
<path d="M80.0773 41.202L72.8691 41.3057C71.8816 35.7242 71.6348 33.0606 71.6348 31.7794C71.6335 31.4599 71.7438 31.1499 71.9466 30.903C72.1494 30.656 72.432 30.4876 72.7456 30.4266C73.185 30.3402 73.7331 30.2415 74.2836 30.165C74.4712 30.1403 74.6612 30.1156 74.8489 30.0959C75.9375 30.0025 77.0314 29.9868 78.1222 30.0489C78.2851 30.0489 78.4456 30.0638 78.6159 30.0736C79.3565 30.1205 80.0329 30.2143 80.5142 30.2884C80.6874 30.3163 80.8424 30.4118 80.9451 30.5539C81.0479 30.696 81.09 30.8731 81.0623 31.0463C81.0635 31.0586 81.0635 31.071 81.0623 31.0833C80.85 32.0707 80.6772 32.9471 80.5389 33.7271C80.3192 34.9614 80.181 35.9686 80.0995 36.8474C79.9761 38.296 79.9687 39.7522 80.0773 41.202Z" fill="#212D33"/>
<path opacity="0.1" d="M80.0973 36.8554C79.7345 35.7668 79.7542 33.508 80.1442 32.7773L80.5417 33.7327C80.317 34.9744 80.1788 35.9766 80.0973 36.8554Z" fill="black"/>
<path d="M72.8696 41.3057C72.8696 41.3057 71.6353 51.7997 70.522 58.3389C69.6407 63.4588 67.4141 74.1156 67.4141 74.1156L70.3048 75.1401C70.3048 75.1401 73.6151 64.0315 74.1952 59.2869C76.528 52.4464 78.2067 41.2539 78.2067 41.2539L72.8696 41.3057Z" fill="#263F97"/>
<path d="M66.9453 74.8305L70.2902 76.008L70.737 74.9342L67.1082 73.5469L66.9453 74.8305Z" fill="#212D33"/>
<path opacity="0.1" d="M76.5235 44.424L75.4423 46.4952C75.0473 48.0553 75.1411 51.852 75.6423 54.2514C76.5408 50.635 77.2592 46.8284 77.706 44.2734L76.5235 44.424Z" fill="black"/>
<path d="M74.4355 41.3043C74.4355 41.3043 75.7266 53.0498 78.1384 59.5718C79.348 62.8427 88.3213 72.5392 88.3213 72.5392L90.3455 70.9199C90.3455 70.9199 84.6555 61.1369 82.1671 58.577C81.1525 52.8992 82.4288 44.3876 80.0713 41.2031L74.4355 41.3043Z" fill="#263F97"/>
<path d="M88.4915 73.2337L90.8662 71.2885L90.2244 70.2344L87.625 72.4981L88.4915 73.2337Z" fill="#212D33"/>
<path d="M80.1905 40.7772L80.5237 41.4166C80.5484 41.4659 80.4916 41.5203 80.4077 41.5203L72.844 41.6289C72.7773 41.6289 72.7255 41.5968 72.7181 41.5573L72.6465 40.913C72.6465 40.8686 72.6983 40.8291 72.7674 40.8291L80.0695 40.7229C80.0925 40.7215 80.1156 40.7258 80.1366 40.7352C80.1577 40.7447 80.1762 40.7591 80.1905 40.7772Z" fill="#212D33"/>
<path d="M79.2128 41.6171H79.4128C79.4498 41.6171 79.4794 41.5949 79.477 41.5727L79.3708 40.7334C79.3708 40.7087 79.3362 40.6914 79.2967 40.6914H79.1116C79.0721 40.6914 79.0425 40.7136 79.0474 40.7358L79.1511 41.5727C79.1388 41.5924 79.1758 41.6171 79.2128 41.6171Z" fill="#263F97"/>
<path d="M73.3879 41.6938H73.5854C73.6249 41.6938 73.652 41.6716 73.6496 41.6469L73.5484 40.8101C73.5484 40.7854 73.5089 40.7656 73.4694 40.7656H73.2719C73.2324 40.7656 73.2028 40.7878 73.2052 40.8125L73.3089 41.6494C73.3138 41.6741 73.3484 41.6938 73.3879 41.6938Z" fill="#263F97"/>
<path d="M76.3013 41.6471H76.4988C76.5383 41.6471 76.5679 41.6249 76.5654 41.6002L76.4618 40.7634C76.4618 40.7362 76.4247 40.7165 76.3852 40.719H76.1877C76.1482 40.719 76.1211 40.7412 76.1211 40.7659L76.2248 41.6027C76.2223 41.6323 76.2618 41.6471 76.3013 41.6471Z" fill="#263F97"/>
<path d="M63.2227 33.918L73.9215 32.4492L75.4026 42.953L64.8964 44.3947L63.2227 33.918Z" fill="#263F97"/>
<path opacity="0.8" d="M63.2227 33.918L73.9215 32.4492L75.4026 42.953L64.8964 44.3947L63.2227 33.918Z" fill="white"/>
<path opacity="0.2" d="M74.0678 31.9397L71.2109 32.3438L72.7433 43.18L75.6002 42.776L74.0678 31.9397Z" fill="#263F97"/>
<path d="M76.9558 41.6309L75.4746 41.0508L75.6203 42.9022C75.6203 42.9022 76.6077 42.8528 77.1384 42.3369L76.9558 41.6309Z" fill="#CE7A63"/>
<path d="M81.6128 32.4102C82.0103 33.521 82.3534 34.6319 82.6447 35.7674C82.7928 36.3377 82.931 36.9104 83.0421 37.4954C83.0964 37.7917 83.1433 38.0928 83.1779 38.4063C83.2176 38.7339 83.2316 39.064 83.2198 39.3938C83.2129 39.6085 83.1798 39.8215 83.1211 40.0282C83.04 40.2823 82.9044 40.5157 82.7237 40.712C82.4597 40.9948 82.1459 41.2266 81.798 41.3958C81.2283 41.6722 80.6285 41.8817 80.0107 42.0203C78.8556 42.2882 77.6778 42.4461 76.493 42.4918L76.377 41.5612C76.9176 41.4328 77.4705 41.2896 78.0087 41.139C78.5468 40.9885 79.0825 40.8206 79.596 40.633C80.0864 40.4644 80.5593 40.2487 81.008 39.9887C81.171 39.8934 81.3163 39.7706 81.4375 39.6258C81.4696 39.5764 81.4696 39.5641 81.4647 39.5641C81.4696 39.4909 81.4696 39.4175 81.4647 39.3444C81.4553 39.1051 81.4298 38.8668 81.3882 38.631C81.3487 38.3841 81.2944 38.1076 81.2351 37.8361C81.1117 37.3078 80.9734 36.7672 80.8179 36.2266C80.5094 35.1552 80.1613 34.0666 79.8132 33.0174L81.6128 32.4102Z" fill="#CE7A63"/>
<path d="M74.1086 41.9621L74.2247 42.3916C74.2595 42.5296 74.3384 42.6524 74.4493 42.7415C74.5602 42.8306 74.6971 42.8811 74.8393 42.8853L75.6342 42.9076L75.4886 41.0586L74.6789 41.1499C74.5929 41.1586 74.5095 41.1841 74.4334 41.225C74.3574 41.2659 74.2901 41.3215 74.2355 41.3884C74.181 41.4554 74.1401 41.5325 74.1154 41.6152C74.0907 41.698 74.0825 41.7848 74.0914 41.8708C74.095 41.9016 74.1008 41.9321 74.1086 41.9621Z" fill="#CE7A63"/>
<path d="M80.7729 30.343C81.6023 30.6812 82.2812 33.4065 82.2812 33.4065L79.9903 35.1962C79.9903 35.1962 78.366 32.6536 78.6968 31.5501C78.9782 30.617 79.7163 29.9159 80.7729 30.343Z" fill="#212D33"/>
<path d="M89.627 74.9258H89.5973C89.5559 74.9229 89.5159 74.9097 89.4809 74.8872C89.446 74.8648 89.4172 74.8339 89.3974 74.7974C89.3827 74.7764 89.3738 74.7518 89.3716 74.7262C89.3694 74.7007 89.3741 74.675 89.385 74.6518C89.4863 74.4543 90.1256 74.3753 90.1947 74.3679C90.2029 74.3663 90.2114 74.3674 90.2189 74.3709C90.2265 74.3745 90.2327 74.3803 90.2367 74.3876C90.2414 74.3946 90.2439 74.4027 90.2439 74.4111C90.2439 74.4194 90.2414 74.4276 90.2367 74.4345C90.1034 74.6147 89.8442 74.911 89.627 74.9258ZM90.1083 74.4642C89.8615 74.5012 89.5134 74.5826 89.464 74.6913C89.4581 74.7005 89.4549 74.7112 89.4549 74.7221C89.4549 74.7331 89.4581 74.7438 89.464 74.753C89.4757 74.7783 89.494 74.8 89.5171 74.8156C89.5401 74.8313 89.567 74.8404 89.5949 74.8419C89.7183 74.8419 89.9158 74.7085 90.1133 74.4642H90.1083Z" fill="#212D33"/>
<path d="M90.1635 74.4442C89.9487 74.4442 89.5192 74.3677 89.4229 74.1973C89.4076 74.1678 89.4026 74.1339 89.4089 74.1012C89.4152 74.0686 89.4323 74.0389 89.4574 74.0171C89.4792 73.9932 89.506 73.9744 89.5358 73.962C89.5657 73.9497 89.5979 73.944 89.6302 73.9456C89.8894 73.9456 90.2178 74.343 90.2276 74.3652C90.2314 74.3711 90.2333 74.378 90.2333 74.385C90.2333 74.392 90.2314 74.3988 90.2276 74.4047C90.2257 74.412 90.2216 74.4184 90.2158 74.4233C90.2101 74.4281 90.203 74.4311 90.1955 74.4319L90.1635 74.4442ZM89.6154 74.0344C89.5806 74.0378 89.5482 74.0536 89.5241 74.0789C89.4871 74.1183 89.4945 74.143 89.5043 74.1628C89.5611 74.2714 89.8993 74.3603 90.1166 74.3603C89.9928 74.2049 89.825 74.0905 89.6352 74.0319L89.6154 74.0344Z" fill="#212D33"/>
<path d="M65.9454 76.8204C65.8082 76.7756 65.6883 76.6894 65.6023 76.5735C65.5827 76.5393 65.5708 76.5013 65.5674 76.4621C65.564 76.4229 65.5692 76.3834 65.5825 76.3464C65.5893 76.3251 65.6015 76.3059 65.6179 76.2907C65.6344 76.2756 65.6545 76.265 65.6763 76.26C65.9034 76.218 66.4391 76.7932 66.5428 76.9092C66.5477 76.9165 66.5503 76.9251 66.5503 76.9339C66.5503 76.9427 66.5477 76.9513 66.5428 76.9586C66.5387 76.9664 66.532 76.9726 66.524 76.9761C66.5159 76.9797 66.5069 76.9805 66.4984 76.9784C66.3092 76.9445 66.1239 76.8916 65.9454 76.8204ZM65.7751 76.3563C65.7498 76.3441 65.7216 76.3389 65.6936 76.3415C65.6936 76.3415 65.6714 76.3415 65.6615 76.3711C65.6516 76.3968 65.6478 76.4244 65.6503 76.4518C65.6529 76.4792 65.6618 76.5057 65.6763 76.5291C65.7529 76.6624 66.017 76.7883 66.3922 76.8697C66.2162 76.6677 66.0096 76.4945 65.78 76.3563H65.7751Z" fill="#212D33"/>
<path d="M66.4942 76.9704H66.4794C66.2992 76.7902 66.0054 76.2496 66.1066 76.0768C66.1288 76.0398 66.1757 76.0003 66.2819 76.0299C66.6793 76.1459 66.5584 76.9161 66.551 76.9482C66.551 76.9563 66.5479 76.9641 66.5425 76.9701C66.537 76.976 66.5294 76.9797 66.5213 76.9803C66.5163 76.9814 66.5111 76.981 66.5063 76.9793C66.5015 76.9775 66.4973 76.9745 66.4942 76.9704ZM66.2967 76.1089H66.272C66.2325 76.0966 66.2029 76.1089 66.193 76.1089C66.1338 76.2101 66.3239 76.6174 66.4967 76.8347C66.4942 76.6446 66.5189 76.2076 66.2967 76.1089Z" fill="#212D33"/>
<path d="M73.9461 22.6641C73.9461 22.6641 72.9587 24.3155 73.6992 25.0388C74.4398 25.7621 74.6571 23.1973 74.6571 23.1973L73.9461 22.6641Z" fill="#212D33"/>
<path d="M78.5337 26.5392C78.5337 26.5392 79.768 24.6088 79.2545 22.6907C78.7411 20.7726 76.3416 22.0119 75.3295 21.4861C74.9587 21.2607 74.5637 21.0777 74.152 20.9405C74.0858 20.9209 74.016 20.9167 73.948 20.9283C73.88 20.9398 73.8155 20.9668 73.7595 21.0071C73.5126 21.2244 73.9422 21.6317 74.0755 21.7847C73.9935 21.6899 73.8988 21.6068 73.794 21.5379C73.6632 21.4515 73.4879 21.4441 73.5472 21.6638C73.6487 21.8999 73.8306 22.0923 74.0607 22.2069C73.9644 22.1526 73.3941 21.8637 73.3546 22.044C73.3497 22.0876 73.3611 22.1316 73.3867 22.1674C73.757 22.8586 74.5025 23.7275 75.3616 23.7448C76.3959 23.7596 77.3834 26.6701 78.5337 26.5392Z" fill="#212D33"/>
<path d="M78.9697 26.6266C78.9056 27.2783 77.9379 27.2857 77.9379 27.2857C77.7795 27.6587 77.5162 27.9778 77.18 28.2041C77.1503 28.5976 77.1635 28.9933 77.2195 29.384C77.3824 29.9987 77.5898 30.211 77.849 30.3492L77.6416 30.5541C77.2447 30.7831 76.7964 30.908 76.3382 30.917L76.0667 30.759L75.7112 30.8158C74.7238 30.4924 74.9706 29.8284 74.9706 29.8284C75.1508 29.3774 75.1604 28.8763 74.9978 28.4188C74.0499 28.1226 73.6623 27.2981 73.529 25.9107C73.3957 24.5234 74.1758 23.1953 74.1758 23.1953C75.2471 24.2296 77.3701 23.5656 77.3701 23.5656C77.2788 25.5108 78.1872 26.2292 78.1872 26.2292C78.4859 25.9626 79.0315 25.9774 78.9697 26.6266Z" fill="#CE7A63"/>
<path d="M75.525 26.8035C75.7797 26.7322 76 26.5708 76.1446 26.3493C76.1563 26.3318 76.1607 26.3104 76.1571 26.2897C76.1534 26.269 76.1418 26.2506 76.1248 26.2382C76.1164 26.2319 76.1069 26.2274 76.0967 26.2249C76.0866 26.2224 76.076 26.222 76.0657 26.2236C76.0554 26.2252 76.0454 26.2288 76.0365 26.2343C76.0276 26.2398 76.0199 26.247 76.0138 26.2554C75.9304 26.4052 75.8014 26.5243 75.6455 26.5954C75.4895 26.6665 75.315 26.6857 75.1473 26.6504C75.1273 26.6442 75.1057 26.6462 75.0872 26.6559C75.0687 26.6657 75.0548 26.6823 75.0485 26.7023C75.0423 26.7226 75.0442 26.7445 75.0539 26.7634C75.0636 26.7823 75.0802 26.7967 75.1004 26.8035C75.2396 26.8399 75.3858 26.8399 75.525 26.8035Z" fill="#212D33"/>
<path d="M75.8047 25.104C75.8047 25.2298 75.7553 25.3385 75.6714 25.3508C75.5874 25.3632 75.5109 25.2595 75.501 25.1336C75.4912 25.0077 75.5529 24.8867 75.6368 24.8867C75.7207 24.8867 75.7948 24.9756 75.8047 25.104Z" fill="#212D33"/>
<path d="M74.2944 25.0386C74.2944 25.1645 74.2451 25.2731 74.1611 25.2854C74.0772 25.2978 74.0031 25.1941 73.9933 25.0682C73.9834 24.9423 74.0426 24.8337 74.1266 24.8213C74.2105 24.809 74.287 24.9102 74.2944 25.0386Z" fill="#212D33"/>
<path d="M74.6941 26.261L74.6769 25.3477L74.2227 26.1179C74.2854 26.1756 74.3604 26.2185 74.4421 26.2433C74.5237 26.268 74.6098 26.2741 74.6941 26.261Z" fill="#BA4D3C"/>
<path d="M76.4937 24.336C76.5045 24.3331 76.5146 24.328 76.5234 24.3212C76.5354 24.3141 76.5459 24.3046 76.5542 24.2934C76.5625 24.2821 76.5685 24.2693 76.5717 24.2557C76.5749 24.2421 76.5754 24.228 76.573 24.2142C76.5706 24.2004 76.5655 24.1873 76.5579 24.1755C76.4757 24.0377 76.3565 23.9258 76.2137 23.8525C76.071 23.7792 75.9106 23.7474 75.7507 23.7608C75.7368 23.7623 75.7234 23.7666 75.7112 23.7735C75.699 23.7803 75.6883 23.7895 75.6798 23.8006C75.6712 23.8117 75.665 23.8243 75.6615 23.8379C75.658 23.8514 75.6573 23.8655 75.6594 23.8793C75.663 23.9071 75.6776 23.9323 75.6998 23.9494C75.722 23.9665 75.75 23.9741 75.7778 23.9706C75.8972 23.9632 76.0163 23.9887 76.1221 24.0445C76.2279 24.1002 76.3163 24.184 76.3777 24.2866C76.3892 24.3062 76.4067 24.3215 76.4276 24.3304C76.4485 24.3393 76.4717 24.3412 76.4937 24.336Z" fill="#212D33"/>
<path d="M73.8157 24.2324C73.8434 24.2252 73.8673 24.2075 73.8823 24.1831C73.9266 24.1161 73.9893 24.0635 74.063 24.0315C74.1366 23.9995 74.2179 23.9895 74.297 24.0029C74.3107 24.0057 74.3247 24.0058 74.3384 24.0031C74.3521 24.0004 74.3651 23.9949 74.3766 23.9871C74.3881 23.9793 74.3979 23.9692 74.4055 23.9575C74.413 23.9458 74.4181 23.9327 74.4205 23.9189C74.4255 23.8914 74.4196 23.8631 74.4038 23.84C74.3881 23.8169 74.3639 23.8009 74.3365 23.7955C74.2144 23.7729 74.0882 23.7876 73.9746 23.8378C73.861 23.888 73.7651 23.9714 73.6996 24.0769C73.6858 24.1013 73.682 24.13 73.6889 24.1572C73.6958 24.1843 73.7129 24.2077 73.7367 24.2226C73.7609 24.2355 73.789 24.239 73.8157 24.2324Z" fill="#212D33"/>
<path d="M78.2511 30.433L77.7203 30.9514L76.7749 31.8796L76.4194 31.3143L76.0664 30.7564L77.3007 29.2852L78.1993 30.3713L78.2511 30.433Z" fill="white"/>
<path d="M76.0664 30.7563L75.7924 31.213L75.39 31.8795L74.4668 30.2132L75.0568 29.5195L76.0664 30.7563Z" fill="white"/>
</svg>
